<svg width="25" height="25" viewBox="0 0 25 25" fill="none" xmlns="http://www.w3.org/2000/svg">
  <path d="M12.5 2.4C7.58 2.4 3.6 6.38 3.6 11.3C3.6 15.35 6.3 18.78 10 19.86H15C18.7 18.78 21.4 15.35 21.4 11.3C21.4 6.38 17.42 2.4 12.5 2.4Z" fill="black"/>
  <path d="M9.3 21.05C9.3 20.16 10.02 19.44 10.91 19.44H14.09C14.98 19.44 15.7 20.16 15.7 21.05V21.75H9.3V21.05Z" fill="black"/>
  <path d="M7.2 22.35C7.2 21.8 7.65 21.35 8.2 21.35H16.8C17.35 21.35 17.8 21.8 17.8 22.35V23.25H7.2V22.35Z" fill="black"/>
  <path d="M8.9 7.2C9.9 6.28 11.26 5.75 12.55 5.75" stroke="white" stroke-width="1.8" stroke-linecap="round" opacity="0.5"/>
  <path d="M16.6 7.9L17.28 9.32L18.7 10L17.28 10.68L16.6 12.1L15.92 10.68L14.5 10L15.92 9.32L16.6 7.9Z" fill="white" opacity="0.72"/>
</svg>
